<svg width="45" height="40" viewBox="0 0 45 40" fill="none" xmlns="http://www.w3.org/2000/svg">
<path fill-rule="evenodd" clip-rule="evenodd" d="M43.112 27.8984C44.1418 26.6606 44.7612 25.0691 44.7612 23.3331C44.7612 19.3882 41.5632 16.1902 37.6183 16.1902C34.574 16.1902 31.9744 18.0947 30.9463 20.7774L30.9248 20.7659C29.124 23.7857 26.6741 26.3734 23.7475 28.3384C20.5168 30.5076 16.8037 31.8519 12.9332 32.2536C9.98506 32.5596 7.01406 32.3116 4.17139 31.5311C6.66988 34.4967 9.85503 36.8073 13.4501 38.2618C17.0574 39.7213 20.9674 40.2744 24.838 39.8727C28.7085 39.4709 32.4216 38.1267 35.6523 35.9575C38.7349 33.8877 41.2886 31.1272 43.112 27.8984Z" fill="#FD7B5F"/>
<path fill-rule="evenodd" clip-rule="evenodd" d="M1.6479 27.8971C0.618759 26.6594 -0.000148773 25.0685 -0.000148773 23.3331C-0.000148773 19.3882 3.19782 16.1902 7.14272 16.1902C10.1869 16.1902 12.7863 18.0945 13.8146 20.7769L13.8356 20.7656C15.6364 23.7856 18.0864 26.3733 21.013 28.3383C24.2437 30.5075 27.9568 31.8518 31.8274 32.2535C34.7754 32.5595 37.7463 32.3116 40.5889 31.5311C38.0904 34.4966 34.9054 36.807 31.3104 38.2615C27.7031 39.721 23.7931 40.2741 19.9225 39.8724C16.052 39.4706 12.3389 38.1264 9.1082 35.9572C6.02526 33.8872 3.47132 31.1263 1.6479 27.8971Z" fill="#18A493"/>
<path fill-rule="evenodd" clip-rule="evenodd" d="M22.3463 40.0002C21.5388 39.999 20.73 39.9568 19.9229 39.873C16.0524 39.4713 12.3393 38.127 9.10859 35.9579C7.25826 34.7155 5.5985 33.2242 4.17285 31.5322C7.01499 32.3123 9.98537 32.5601 12.9329 32.2542C16.2682 31.908 19.4867 30.8619 22.3803 29.1912C25.2739 30.8619 28.4924 31.908 31.8277 32.2542C34.7752 32.5601 37.7456 32.3123 40.5877 31.5322C39.1621 33.2242 37.5023 34.7155 35.652 35.9579C32.4213 38.127 28.7082 39.4713 24.8377 39.873C24.0079 39.9591 23.1763 40.0014 22.3463 40.0002Z" fill="#F5F5FB"/>
<circle cx="37.3802" cy="6.42858" r="6.42858" fill="#FD7B5F"/>
<circle cx="8.80895" cy="6.42858" r="6.42858" fill="#18A493"/>
</svg>
